<svg xmlns="http://www.w3.org/2000/svg" viewBox="0 0 512 512" width="512" height="512">
  <mask id="us-mask"><circle cx="256" cy="256" r="256" fill="#fff"/></mask>
  <g mask="url(#us-mask)">
    <rect width="512" height="512" fill="#b22234"/>
    <path fill="#fff" d="M0,39.38h512v39.38h-512zM0,118.15h512v39.38h-512zM0,196.92h512v39.38h-512zM0,275.69h512v39.38h-512zM0,354.46h512v39.38h-512zM0,433.23h512v39.38h-512z"/>
    <rect width="204.8" height="275.69" fill="#3c3b6e"/>
    <g fill="#fff">
      <circle cx="25" cy="27" r="10"/><circle cx="76" cy="27" r="10"/><circle cx="127" cy="27" r="10"/><circle cx="178" cy="27" r="10"/>
      <circle cx="50" cy="55" r="10"/><circle cx="101" cy="55" r="10"/><circle cx="152" cy="55" r="10"/>
      <circle cx="25" cy="83" r="10"/><circle cx="76" cy="83" r="10"/><circle cx="127" cy="83" r="10"/><circle cx="178" cy="83" r="10"/>
      <circle cx="50" cy="111" r="10"/><circle cx="101" cy="111" r="10"/><circle cx="152" cy="111" r="10"/>
      <circle cx="25" cy="139" r="10"/><circle cx="76" cy="139" r="10"/><circle cx="127" cy="139" r="10"/><circle cx="178" cy="139" r="10"/>
      <circle cx="50" cy="167" r="10"/><circle cx="101" cy="167" r="10"/><circle cx="152" cy="167" r="10"/>
      <circle cx="25" cy="195" r="10"/><circle cx="76" cy="195" r="10"/><circle cx="127" cy="195" r="10"/><circle cx="178" cy="195" r="10"/>
      <circle cx="50" cy="223" r="10"/><circle cx="101" cy="223" r="10"/><circle cx="152" cy="223" r="10"/>
      <circle cx="25" cy="251" r="10"/><circle cx="76" cy="251" r="10"/><circle cx="127" cy="251" r="10"/><circle cx="178" cy="251" r="10"/>
    </g>
  </g>
</svg>